<?xml version="1.0" encoding="UTF-8" standalone="no"?>
<!DOCTYPE svg PUBLIC "-//W3C//DTD SVG 1.1//EN" "http://www.w3.org/Graphics/SVG/1.1/DTD/svg11.dtd">
<svg width="100%" height="100%" viewBox="0 0 800 320" version="1.1" xmlns="http://www.w3.org/2000/svg" xmlns:xlink="http://www.w3.org/1999/xlink" xml:space="preserve" xmlns:serif="http://www.serif.com/" style="fill-rule:evenodd;clip-rule:evenodd;stroke-linejoin:round;stroke-miterlimit:2;">
<defs>
    <filter id="shadow">
      <feDropShadow dx="1.2" dy="2.4" stdDeviation="3.2" flood-color="red" flood-opacity="1.2"/>
    </filter>
    <filter id="flooder" x="0" y="0" width="100%" height="100%">
        <feFlood flood-color="#EB0066" flood-opacity=".3"></feFlood>
    </filter>
</defs>
    <g id="art-thérapie" transform="matrix(1.28271,-0.279161,0.216516,0.994863,-210.849,125.772)">
        <text x="177.258px" y="25.721px" style="font-family:'AmaticSC-Bold', 'Amatic SC';font-weight:700;font-size:56.51px;fill:rgb(7,254,173);stroke:rgb(193,233,209);stroke-width:0.34px;">art-thérapie</text>
        <rect x="177.258" y="29.959" width="196.823" height="2.825" style="fill:rgb(7,254,173);"/>
    </g>
    <g id="ateliers" transform="matrix(1.43412,-0.190598,0.214042,1.61053,-219.397,288.039)">
        <text x="177.258px" y="25.721px" style="font-family:'AmaticSC-Bold', 'Amatic SC';font-weight:700;font-size:47.381px;fill:rgb(5,253,255);stroke:rgb(193,233,209);stroke-width:0.26px;">ateliers</text>
        <rect x="177.258" y="29.275" width="102.296" height="2.369" style="fill:rgb(5,253,255);"/>
    </g>
    <g id="spectacles" transform="matrix(1.58899,-0.0491397,0.0331819,1.07298,-148.581,115.626)">
        <text x="177.258px" y="25.721px" style="font-family:'AmaticSC-Bold', 'Amatic SC';font-weight:700;font-size:53.346px;fill:rgb(252,171,6);">spectacles</text>
        <rect x="177.258" y="29.722" width="145.315" height="2.667" style="fill:rgb(252,171,6);"/>
    </g>
    <g id="sophro" transform="matrix(1.34245,0.220009,-0.170284,1.03904,-174.694,122.166)">
        <text x="177.258px" y="25.721px" style="font-family:'AmaticSC-Bold', 'Amatic SC';font-weight:700;font-size:56.51px;fill:rgb(23,0,255);">sophrologie</text>
        <rect x="177.258" y="29.959" width="189.759" height="2.825" style="fill:rgb(23,0,255);"/>
    </g>
    <g id="équipe" transform="matrix(0.932496,0,0,0.749181,165.915,25.7949)">
        <text x="177.258px" y="25.721px" style="font-family:'AmaticSC-Bold', 'Amatic SC';font-weight:700;font-size:62.659px;fill:rgb(255,211,204);">équipe</text>
        <rect x="177.258" y="30.421" width="112.409" height="3.133" style="fill:rgb(255,211,204);"/>
    </g>
    <g transform="matrix(1.21582,0.266521,-0.214127,0.976806,56.0204,-146.151)">
        <text x="470px" y="225px" style="font-family:'AmaticSC-Bold', 'Amatic SC';font-weight:700;font-size:85px;fill:rgb(15,255,0);">tout</text>
    </g>
    <g transform="matrix(1,0.000749825,-0.000749825,1,27.2069,0.796147)">
        <text x="226.957px" y="295.957px" style="font-family:'AmaticSC-Bold', 'Amatic SC';font-weight:700;font-size:56.728px;fill:rgb(240,252,6);">écrits</text>
        <rect x="226.957" y="300.212" width="90.028" height="2.836" style="fill:rgb(240,252,6);"/>
    </g>
    <a xlink:href="art-therapie"><g id="art" transform="matrix(0.782228,-0.170543,0.159495,0.731555,-11.9804,23.8591)">
        <rect class="hovered" x="13" y="57.007" width="329" height="69" style="fill:rgb(249,22,1);fill-opacity:0;"/>
    </g></a>
    <a xlink:href="spectacles-test"><g id="spe" transform="matrix(0.717996,-0.0199296,0.0211717,0.762746,119.553,49.1273)">
        <rect class="hovered" x="13" y="57.007" width="329" height="69" style="fill:rgb(249,22,1);fill-opacity:0;"/>
    </g></a>
    <a xlink:href="sophrologie"><g id="sop" transform="matrix(0.815854,0.137681,-0.126973,0.752401,53.4919,97.7555)">
        <rect class="hovered" x="13" y="57.007" width="329" height="69" style="fill:rgb(249,22,1);fill-opacity:0;"/>
    </g></a>
    <a xlink:href="equipe"><g id="equ" transform="matrix(0.351846,-0.00406256,0.00781528,0.676859,323.105,-29.7932)">
        <rect class="hovered" x="13" y="57.007" width="329" height="69" style="fill:rgb(249,22,1);fill-opacity:0;"/>
    </g></a>
    <a xlink:href="ecrits"><g id="ecr" transform="matrix(0.300216,-0.00346642,0.00898374,0.778056,244.806,210.267)">
        <rect class="hovered" x="13" y="57.007" width="329" height="69" style="fill:rgb(249,22,1);fill-opacity:0;"/>
    </g></a>
    <a xlink:href="ateliers"><g id="ate" transform="matrix(0.461553,-0.0604947,0.121343,0.925806,18.3871,194.361)">
        <rect class="hovered" x="13" y="57.007" width="329" height="69" style="fill:rgb(249,22,1);fill-opacity:0;"/>
    </g></a>
    <g transform="matrix(1.37357,-4.31837e-18,3.46945e-18,1.10355,30.000,40.3278)">
        <text x="330px" y="250px" style="font-family:'AmaticSC-Bold', 'Amatic SC';font-weight:700;font-size:90px;fill:rgb(15,255,0);">rêver</text>
    </g>
    <g transform="matrix(1.39841,-0.169493,0.136173,1.12351,71.898,-4.87119)">
        <text x="386.387px" y="157.861px" style="font-family:'AmaticSC-Bold', 'Amatic SC';font-weight:700;font-size:70px;fill:rgb(15,255,0);">haut</text>
    </g>
    <a xlink:href="/"><g id="rev" transform="matrix(0.492554,0.00011565,-0.000272678,1.16134,544.17,154.721)">
        <rect class="hovered" x="13" y="57.007" width="329" height="69" style="fill:rgb(249,22,1);fill-opacity:0;"/>
    </g></a>
</svg>
